<svg width="107" height="11" viewBox="0 0 107 11" fill="none" xmlns="http://www.w3.org/2000/svg">
<path d="M5.13006 8.696L0.894063 6.8V5.552L5.13006 3.644V4.892L2.14206 6.176L5.13006 7.448V8.696ZM97.2438 10.52L100.46 1.1H101.96L98.7438 10.52H97.2438ZM101.868 8.696V7.448L104.856 6.176L101.868 4.892V3.644L106.104 5.552V6.8L101.868 8.696Z" fill="#7900FF"/>
<path d="M10.599 9.5V2.588H8.22297V1.1H14.511V2.588H12.135V9.5H10.599ZM15.3129 9.5V0.499999H16.8009V4.376L16.4649 4.112C16.7169 3.936 16.9909 3.774 17.2869 3.626C17.5829 3.478 17.9369 3.404 18.3489 3.404C18.8769 3.404 19.3069 3.522 19.6389 3.758C19.9709 3.99 20.2149 4.314 20.3709 4.73C20.5269 5.142 20.6049 5.62 20.6049 6.164V9.5H19.1169V6.272C19.1169 5.712 19.0269 5.298 18.8469 5.03C18.6669 4.762 18.3729 4.628 17.9649 4.628C17.6169 4.628 17.3309 4.71 17.1069 4.874C16.8869 5.034 16.6929 5.252 16.5249 5.528L16.8009 4.724V9.5H15.3129ZM23.2303 9.62C22.9103 9.62 22.6183 9.55 22.3543 9.41C22.0903 9.266 21.8803 9.06 21.7243 8.792C21.5683 8.524 21.4903 8.2 21.4903 7.82C21.4903 7.48 21.5683 7.19 21.7243 6.95C21.8843 6.706 22.0923 6.504 22.3483 6.344C22.6083 6.18 22.8883 6.052 23.1883 5.96C23.4923 5.864 23.7903 5.794 24.0823 5.75C24.3783 5.706 24.6383 5.68 24.8623 5.672C24.8463 5.328 24.7583 5.078 24.5983 4.922C24.4383 4.766 24.1663 4.688 23.7823 4.688C23.5143 4.688 23.2523 4.726 22.9963 4.802C22.7443 4.874 22.4583 4.988 22.1383 5.144L22.0063 3.932C22.3663 3.756 22.7263 3.624 23.0863 3.536C23.4503 3.448 23.8183 3.404 24.1903 3.404C24.6383 3.404 25.0243 3.484 25.3483 3.644C25.6723 3.804 25.9223 4.062 26.0983 4.418C26.2743 4.77 26.3623 5.236 26.3623 5.816V7.436C26.3623 7.736 26.3763 7.954 26.4043 8.09C26.4323 8.222 26.4843 8.306 26.5603 8.342C26.6363 8.378 26.7463 8.396 26.8903 8.396H27.0823L26.9503 9.62H26.4103C26.1863 9.62 25.9863 9.59 25.8103 9.53C25.6383 9.474 25.4903 9.394 25.3663 9.29C25.2423 9.186 25.1423 9.064 25.0663 8.924C24.8703 9.144 24.6043 9.316 24.2683 9.44C23.9363 9.56 23.5903 9.62 23.2303 9.62ZM23.8543 8.48C23.9863 8.48 24.1503 8.446 24.3463 8.378C24.5423 8.306 24.7183 8.196 24.8743 8.048V6.68C24.5943 6.692 24.3143 6.738 24.0343 6.818C23.7543 6.898 23.5203 7.016 23.3323 7.172C23.1443 7.328 23.0503 7.524 23.0503 7.76C23.0503 8.004 23.1143 8.186 23.2423 8.306C23.3703 8.422 23.5743 8.48 23.8543 8.48ZM27.9108 9.5V3.5H29.3988V9.5H27.9108ZM27.9108 2.588V1.1H29.3988V2.588H27.9108ZM32.4977 9.62C32.1017 9.62 31.7437 9.582 31.4237 9.506C31.1077 9.43 30.7897 9.32 30.4697 9.176L30.6017 7.904C30.9097 8.084 31.2117 8.23 31.5077 8.342C31.8077 8.45 32.1217 8.504 32.4497 8.504C32.7457 8.504 32.9717 8.456 33.1277 8.36C33.2837 8.264 33.3617 8.112 33.3617 7.904C33.3617 7.748 33.3197 7.62 33.2357 7.52C33.1557 7.42 33.0337 7.33 32.8697 7.25C32.7057 7.17 32.5017 7.084 32.2577 6.992C31.8897 6.856 31.5757 6.708 31.3157 6.548C31.0597 6.388 30.8637 6.196 30.7277 5.972C30.5957 5.744 30.5297 5.464 30.5297 5.132C30.5297 4.788 30.6197 4.484 30.7997 4.22C30.9797 3.956 31.2357 3.75 31.5677 3.602C31.8997 3.454 32.2937 3.38 32.7497 3.38C33.1297 3.38 33.4697 3.422 33.7697 3.506C34.0737 3.59 34.3537 3.704 34.6097 3.848L34.4777 5.12C34.2097 4.932 33.9397 4.778 33.6677 4.658C33.3957 4.534 33.0977 4.472 32.7737 4.472C32.5177 4.472 32.3197 4.524 32.1797 4.628C32.0397 4.732 31.9697 4.88 31.9697 5.072C31.9697 5.304 32.0677 5.478 32.2637 5.594C32.4597 5.71 32.7737 5.852 33.2057 6.02C33.4857 6.128 33.7277 6.24 33.9317 6.356C34.1397 6.472 34.3117 6.6 34.4477 6.74C34.5837 6.88 34.6837 7.04 34.7477 7.22C34.8157 7.396 34.8497 7.6 34.8497 7.832C34.8497 8.212 34.7577 8.536 34.5737 8.804C34.3937 9.068 34.1277 9.27 33.7757 9.41C33.4277 9.55 33.0017 9.62 32.4977 9.62ZM37.5719 9.62C37.1759 9.62 36.8179 9.582 36.4979 9.506C36.1819 9.43 35.8639 9.32 35.5439 9.176L35.6759 7.904C35.9839 8.084 36.2859 8.23 36.5819 8.342C36.8819 8.45 37.1959 8.504 37.5239 8.504C37.8199 8.504 38.0459 8.456 38.2019 8.36C38.3579 8.264 38.4359 8.112 38.4359 7.904C38.4359 7.748 38.3939 7.62 38.3099 7.52C38.2299 7.42 38.1079 7.33 37.9439 7.25C37.7799 7.17 37.5759 7.084 37.3319 6.992C36.9639 6.856 36.6499 6.708 36.3899 6.548C36.1339 6.388 35.9379 6.196 35.8019 5.972C35.6699 5.744 35.6039 5.464 35.6039 5.132C35.6039 4.788 35.6939 4.484 35.8739 4.22C36.0539 3.956 36.3099 3.75 36.6419 3.602C36.9739 3.454 37.3679 3.38 37.8239 3.38C38.2039 3.38 38.5439 3.422 38.8439 3.506C39.1479 3.59 39.4279 3.704 39.6839 3.848L39.5519 5.12C39.2839 4.932 39.0139 4.778 38.7419 4.658C38.4699 4.534 38.1719 4.472 37.8479 4.472C37.5919 4.472 37.3939 4.524 37.2539 4.628C37.1139 4.732 37.0439 4.88 37.0439 5.072C37.0439 5.304 37.1419 5.478 37.3379 5.594C37.5339 5.71 37.8479 5.852 38.2799 6.02C38.5599 6.128 38.8019 6.24 39.0059 6.356C39.2139 6.472 39.3859 6.6 39.5219 6.74C39.6579 6.88 39.7579 7.04 39.8219 7.22C39.8899 7.396 39.9239 7.6 39.9239 7.832C39.9239 8.212 39.8319 8.536 39.6479 8.804C39.4679 9.068 39.2019 9.27 38.8499 9.41C38.5019 9.55 38.0759 9.62 37.5719 9.62ZM42.2381 9.62C41.9181 9.62 41.6261 9.55 41.3621 9.41C41.0981 9.266 40.8881 9.06 40.7321 8.792C40.5761 8.524 40.4981 8.2 40.4981 7.82C40.4981 7.48 40.5761 7.19 40.7321 6.95C40.8921 6.706 41.1001 6.504 41.3561 6.344C41.6161 6.18 41.8961 6.052 42.1961 5.96C42.5001 5.864 42.7981 5.794 43.0901 5.75C43.3861 5.706 43.6461 5.68 43.8701 5.672C43.8541 5.328 43.7661 5.078 43.6061 4.922C43.4461 4.766 43.1741 4.688 42.7901 4.688C42.5221 4.688 42.2601 4.726 42.0041 4.802C41.7521 4.874 41.4661 4.988 41.1461 5.144L41.0141 3.932C41.3741 3.756 41.7341 3.624 42.0941 3.536C42.4581 3.448 42.8261 3.404 43.1981 3.404C43.6461 3.404 44.0321 3.484 44.3561 3.644C44.6801 3.804 44.9301 4.062 45.1061 4.418C45.2821 4.77 45.3701 5.236 45.3701 5.816V7.436C45.3701 7.736 45.3841 7.954 45.4121 8.09C45.4401 8.222 45.4921 8.306 45.5681 8.342C45.6441 8.378 45.7541 8.396 45.8981 8.396H46.0901L45.9581 9.62H45.4181C45.1941 9.62 44.9941 9.59 44.8181 9.53C44.6461 9.474 44.4981 9.394 44.3741 9.29C44.2501 9.186 44.1501 9.064 44.0741 8.924C43.8781 9.144 43.6121 9.316 43.2761 9.44C42.9441 9.56 42.5981 9.62 42.2381 9.62ZM42.8621 8.48C42.9941 8.48 43.1581 8.446 43.3541 8.378C43.5501 8.306 43.7261 8.196 43.8821 8.048V6.68C43.6021 6.692 43.3221 6.738 43.0421 6.818C42.7621 6.898 42.5281 7.016 42.3401 7.172C42.1521 7.328 42.0581 7.524 42.0581 7.76C42.0581 8.004 42.1221 8.186 42.2501 8.306C42.3781 8.422 42.5821 8.48 42.8621 8.48ZM53.646 9.668C52.794 9.668 52.044 9.488 51.396 9.128C50.748 8.764 50.242 8.256 49.878 7.604C49.518 6.948 49.338 6.18 49.338 5.3C49.338 4.42 49.524 3.654 49.896 3.002C50.272 2.346 50.788 1.838 51.444 1.478C52.1 1.114 52.85 0.931999 53.694 0.931999C54.138 0.931999 54.544 0.98 54.912 1.076C55.28 1.168 55.598 1.284 55.866 1.424L55.698 2.888C55.394 2.748 55.08 2.634 54.756 2.546C54.436 2.454 54.078 2.408 53.682 2.408C53.094 2.408 52.602 2.532 52.206 2.78C51.814 3.028 51.518 3.37 51.318 3.806C51.118 4.242 51.018 4.74 51.018 5.3C51.018 5.86 51.116 6.358 51.312 6.794C51.508 7.23 51.8 7.572 52.188 7.82C52.58 8.068 53.066 8.192 53.646 8.192C54.05 8.192 54.412 8.148 54.732 8.06C55.052 7.972 55.374 7.856 55.698 7.712L55.866 9.176C55.55 9.324 55.202 9.442 54.822 9.53C54.446 9.622 54.054 9.668 53.646 9.668ZM58.2225 9.62C57.9025 9.62 57.6105 9.55 57.3465 9.41C57.0825 9.266 56.8725 9.06 56.7165 8.792C56.5605 8.524 56.4825 8.2 56.4825 7.82C56.4825 7.48 56.5605 7.19 56.7165 6.95C56.8765 6.706 57.0845 6.504 57.3405 6.344C57.6005 6.18 57.8805 6.052 58.1805 5.96C58.4845 5.864 58.7825 5.794 59.0745 5.75C59.3705 5.706 59.6305 5.68 59.8545 5.672C59.8385 5.328 59.7505 5.078 59.5905 4.922C59.4305 4.766 59.1585 4.688 58.7745 4.688C58.5065 4.688 58.2445 4.726 57.9885 4.802C57.7365 4.874 57.4505 4.988 57.1305 5.144L56.9985 3.932C57.3585 3.756 57.7185 3.624 58.0785 3.536C58.4425 3.448 58.8105 3.404 59.1825 3.404C59.6305 3.404 60.0165 3.484 60.3405 3.644C60.6645 3.804 60.9145 4.062 61.0905 4.418C61.2665 4.77 61.3545 5.236 61.3545 5.816V7.436C61.3545 7.736 61.3685 7.954 61.3965 8.09C61.4245 8.222 61.4765 8.306 61.5525 8.342C61.6285 8.378 61.7385 8.396 61.8825 8.396H62.0745L61.9425 9.62H61.4025C61.1785 9.62 60.9785 9.59 60.8025 9.53C60.6305 9.474 60.4825 9.394 60.3585 9.29C60.2345 9.186 60.1345 9.064 60.0585 8.924C59.8625 9.144 59.5965 9.316 59.2605 9.44C58.9285 9.56 58.5825 9.62 58.2225 9.62ZM58.8465 8.48C58.9785 8.48 59.1425 8.446 59.3385 8.378C59.5345 8.306 59.7105 8.196 59.8665 8.048V6.68C59.5865 6.692 59.3065 6.738 59.0265 6.818C58.7465 6.898 58.5125 7.016 58.3245 7.172C58.1365 7.328 58.0425 7.524 58.0425 7.76C58.0425 8.004 58.1065 8.186 58.2345 8.306C58.3625 8.422 58.5665 8.48 58.8465 8.48ZM62.903 9.5V3.5H64.295L64.331 4.136C64.483 3.968 64.697 3.8 64.973 3.632C65.249 3.464 65.551 3.38 65.879 3.38C65.975 3.38 66.063 3.388 66.143 3.404L66.035 4.868C65.947 4.844 65.859 4.828 65.771 4.82C65.687 4.812 65.603 4.808 65.519 4.808C65.267 4.808 65.037 4.866 64.829 4.982C64.621 5.098 64.475 5.24 64.391 5.408V9.5H62.903ZM68.508 9.5L66.204 3.5H67.668L69.144 7.652L70.62 3.5H72.084L69.78 9.5H68.508ZM74.0545 9.62C73.7345 9.62 73.4425 9.55 73.1785 9.41C72.9145 9.266 72.7045 9.06 72.5485 8.792C72.3925 8.524 72.3145 8.2 72.3145 7.82C72.3145 7.48 72.3925 7.19 72.5485 6.95C72.7085 6.706 72.9165 6.504 73.1725 6.344C73.4325 6.18 73.7125 6.052 74.0125 5.96C74.3165 5.864 74.6145 5.794 74.9065 5.75C75.2025 5.706 75.4625 5.68 75.6865 5.672C75.6705 5.328 75.5825 5.078 75.4225 4.922C75.2625 4.766 74.9905 4.688 74.6065 4.688C74.3385 4.688 74.0765 4.726 73.8205 4.802C73.5685 4.874 73.2825 4.988 72.9625 5.144L72.8305 3.932C73.1905 3.756 73.5505 3.624 73.9105 3.536C74.2745 3.448 74.6425 3.404 75.0145 3.404C75.4625 3.404 75.8485 3.484 76.1725 3.644C76.4965 3.804 76.7465 4.062 76.9225 4.418C77.0985 4.77 77.1865 5.236 77.1865 5.816V7.436C77.1865 7.736 77.2005 7.954 77.2285 8.09C77.2565 8.222 77.3085 8.306 77.3845 8.342C77.4605 8.378 77.5705 8.396 77.7145 8.396H77.9065L77.7745 9.62H77.2345C77.0105 9.62 76.8105 9.59 76.6345 9.53C76.4625 9.474 76.3145 9.394 76.1905 9.29C76.0665 9.186 75.9665 9.064 75.8905 8.924C75.6945 9.144 75.4285 9.316 75.0925 9.44C74.7605 9.56 74.4145 9.62 74.0545 9.62ZM74.6785 8.48C74.8105 8.48 74.9745 8.446 75.1705 8.378C75.3665 8.306 75.5425 8.196 75.6985 8.048V6.68C75.4185 6.692 75.1385 6.738 74.8585 6.818C74.5785 6.898 74.3445 7.016 74.1565 7.172C73.9685 7.328 73.8745 7.524 73.8745 7.76C73.8745 8.004 73.9385 8.186 74.0665 8.306C74.1945 8.422 74.3985 8.48 74.6785 8.48ZM80.2711 9.62C79.9151 9.62 79.6231 9.55 79.3951 9.41C79.1711 9.266 79.0051 9.076 78.8971 8.84C78.7891 8.6 78.7351 8.336 78.7351 8.048V0.499999H80.2231V7.436C80.2231 7.756 80.2411 7.984 80.2771 8.12C80.3171 8.252 80.3891 8.332 80.4931 8.36C80.5971 8.384 80.7471 8.396 80.9431 8.396L80.8111 9.62H80.2711ZM81.8754 9.5V0.499999H83.3634V4.376L83.0274 4.112C83.2794 3.936 83.5534 3.774 83.8494 3.626C84.1454 3.478 84.4994 3.404 84.9114 3.404C85.4394 3.404 85.8694 3.522 86.2014 3.758C86.5334 3.99 86.7774 4.314 86.9334 4.73C87.0894 5.142 87.1674 5.62 87.1674 6.164V9.5H85.6794V6.272C85.6794 5.712 85.5894 5.298 85.4094 5.03C85.2294 4.762 84.9354 4.628 84.5274 4.628C84.1794 4.628 83.8934 4.71 83.6694 4.874C83.4494 5.034 83.2554 5.252 83.0874 5.528L83.3634 4.724V9.5H81.8754ZM91.2208 9.62C90.5688 9.62 90.0128 9.478 89.5528 9.194C89.0928 8.91 88.7408 8.532 88.4968 8.06C88.2568 7.588 88.1368 7.072 88.1368 6.512C88.1368 5.948 88.2568 5.428 88.4968 4.952C88.7408 4.476 89.0928 4.096 89.5528 3.812C90.0128 3.524 90.5688 3.38 91.2208 3.38C91.8728 3.38 92.4288 3.524 92.8888 3.812C93.3488 4.096 93.6988 4.476 93.9388 4.952C94.1828 5.428 94.3048 5.948 94.3048 6.512C94.3048 7.072 94.1828 7.588 93.9388 8.06C93.6988 8.532 93.3488 8.91 92.8888 9.194C92.4288 9.478 91.8728 9.62 91.2208 9.62ZM91.2208 8.396C91.7208 8.396 92.1048 8.222 92.3728 7.874C92.6448 7.522 92.7808 7.068 92.7808 6.512C92.7808 5.948 92.6448 5.49 92.3728 5.138C92.1048 4.782 91.7208 4.604 91.2208 4.604C90.7248 4.604 90.3408 4.782 90.0688 5.138C89.7968 5.49 89.6608 5.948 89.6608 6.512C89.6608 7.068 89.7968 7.522 90.0688 7.874C90.3408 8.222 90.7248 8.396 91.2208 8.396Z" fill="white"/>
</svg>
